HIERARCHY
ROOT SpineBase
{
  OFFSET 0.000000 0.000000 0.000000
  CHANNELS 6 Xposition Yposition Zposition Zrotation Xrotation Yrotation
  JOINT SpineMid
  {
    OFFSET 0.000000 32.667864 0.000000
    CHANNELS 3 Zrotation Xrotation Yrotation
    JOINT SpineShoulder
    {
      OFFSET -0.243030 24.302606 -0.846271
      CHANNELS 3 Zrotation Xrotation Yrotation
      JOINT Neck
      {
        OFFSET -0.176548 8.058745 -0.651605
        CHANNELS 3 Zrotation Xrotation Yrotation
        JOINT Head
        {
          OFFSET -1.788764 13.127875 -0.627830
          CHANNELS 3 Zrotation Xrotation Yrotation
          End Site
          {
            OFFSET 0 0 0
          }
        }
      }
      JOINT ShoulderLeft
      {
        OFFSET -17.208327 -4.565456 6.426714
        CHANNELS 3 Zrotation Xrotation Yrotation
        JOINT ElbowLeft
        {
          OFFSET -3.000396 -29.893856 1.631150
          CHANNELS 3 Zrotation Xrotation Yrotation
          JOINT WristLeft
          {
            OFFSET -1.908370 -23.484647 -6.259829
            CHANNELS 3 Zrotation Xrotation Yrotation
            JOINT HandLeft
            {
              OFFSET 0.218471 -5.853516 -3.218630
              CHANNELS 3 Zrotation Xrotation Yrotation
              JOINT HandTipLeft
              {
                OFFSET 2.707661 -7.842749 -1.412637
                CHANNELS 3 Zrotation Xrotation Yrotation
                End Site
                {
                  OFFSET 0 0 0
                }
              }
              JOINT ThumbLeft
              {
                OFFSET -3.208408 -2.268429 -2.684271
                CHANNELS 3 Zrotation Xrotation Yrotation
                End Site
                {
                  OFFSET 0 0 0
                }
              }
            }
          }
        }
      }
      JOINT ShoulderRight
      {
        OFFSET 13.960085 -3.002680 -7.220291
        CHANNELS 3 Zrotation Xrotation Yrotation
        JOINT ElbowRight
        {
          OFFSET 5.739901 -27.939567 -2.357934
          CHANNELS 3 Zrotation Xrotation Yrotation
          JOINT WristRight
          {
            OFFSET -1.063708 -23.341063 -6.471258
            CHANNELS 3 Zrotation Xrotation Yrotation
            JOINT HandRight
            {
              OFFSET -2.753990 -5.321657 -1.561337
              CHANNELS 3 Zrotation Xrotation Yrotation
              JOINT HandTipRight
              {
                OFFSET -1.084197 -6.808847 -2.212620
                CHANNELS 3 Zrotation Xrotation Yrotation
                End Site
                {
                  OFFSET 0 0 0
                }
              }
              JOINT ThumbRight
              {
                OFFSET 2.353870 0.236728 -3.530505
                CHANNELS 3 Zrotation Xrotation Yrotation
                End Site
                {
                  OFFSET 0 0 0
                }
              }
            }
          }
        }
      }
    }
  }
  JOINT HipLeft
  {
    OFFSET -7.741407 0.918209 -1.125733
    CHANNELS 3 Zrotation Xrotation Yrotation
    JOINT KneeLeft
    {
      OFFSET 1.615682 -39.097217 1.328713
      CHANNELS 3 Zrotation Xrotation Yrotation
      JOINT AnkleLeft
      {
        OFFSET 3.792023 -34.208461 6.069614
        CHANNELS 3 Zrotation Xrotation Yrotation
        JOINT FootLeft
        {
          OFFSET -5.301273 -3.390822 -13.477778
          CHANNELS 3 Zrotation Xrotation Yrotation
          End Site
          {
            OFFSET 0 0 0
          }
        }
      }
    }
  }
  JOINT HipRight
  {
    OFFSET 5.831440 1.668399 -6.400892
    CHANNELS 3 Zrotation Xrotation Yrotation
    JOINT KneeRight
    {
      OFFSET 7.232303 -37.158173 -4.136047
      CHANNELS 3 Zrotation Xrotation Yrotation
      JOINT AnkleRight
      {
        OFFSET 6.000768 -37.916167 6.112391
        CHANNELS 3 Zrotation Xrotation Yrotation
        JOINT FootRight
        {
          OFFSET -5.482872 -3.457277 -13.229261
          CHANNELS 3 Zrotation Xrotation Yrotation
          End Site
          {
            OFFSET 0 0 0
          }
        }
      }
    }
  }
}
MOTION
Frames: 5
Frame Time: 0.033333
81.079453 78.796910 321.002925 0.438689 -0.042381 22.250850 -0.389976 0.205338 -22.249989 -0.000000 0.000000 0.000000 8.590452 -0.323280 0.387811 0.000000 0.000000 0.000000 1.482388 1.410064 -0.079041 -1.380261 -2.226046 0.085369 1.441128 6.219296 -0.757060 -6.866386 -8.197329 -0.069339 0.000000 0.000000 0.000000 0.000000 0.000000 0.000000 1.423525 0.006217 -0.118640 -1.423509 -0.009163 0.118449 -1.222792 -1.262220 0.996228 2.314925 2.501286 -1.600843 0.000000 0.000000 0.000000 0.000000 0.000000 0.000000 -0.389976 0.205338 -22.249989 0.792615 -0.111658 0.128910 -0.757016 -0.483151 0.676604 0.000000 0.000000 0.000000 -0.389976 0.205338 -22.249989 -0.000000 0.000000 0.000000 -1.850451 3.353838 1.595478 0.000000 0.000000 0.000000
81.025442 78.795104 321.035553 0.521115 -0.018420 22.406696 -0.474753 0.215664 -22.405718 -0.000000 0.000000 0.000000 9.254083 -0.380336 0.417816 0.000000 0.000000 0.000000 1.773586 1.827442 -0.115218 -1.638141 -2.690243 0.098763 1.855860 5.861524 -1.029330 -6.260884 -5.486098 1.046165 0.000000 0.000000 0.000000 0.000000 0.000000 0.000000 1.697147 0.052596 -0.132804 -1.697021 -0.056506 0.131188 -0.703894 -0.814309 0.622248 2.421370 1.501873 -1.333274 0.000000 0.000000 0.000000 0.000000 0.000000 0.000000 -0.474753 0.215664 -22.405718 0.976883 -0.257144 0.146823 -0.994156 -0.367548 0.926180 0.000000 0.000000 0.000000 -0.474753 0.215664 -22.405718 -0.033332 -0.811169 -0.133844 0.085563 0.196300 0.923526 0.000000 0.000000 0.000000
80.971653 78.792982 321.072316 0.596783 -0.009847 22.595223 -0.547196 0.238382 -22.594033 -0.000000 0.000000 0.000000 9.854595 -0.372108 0.448490 0.000000 0.000000 0.000000 2.106394 2.332117 -0.162515 -2.101520 -2.336509 0.076775 1.860123 3.204512 -0.940252 -5.748453 -2.186987 1.746976 0.000000 0.000000 0.000000 0.000000 0.000000 0.000000 2.002238 0.110786 -0.147628 -2.001950 -0.115876 0.143668 -0.000000 0.000000 0.000000 2.726608 -0.289753 -0.837024 0.000000 0.000000 0.000000 0.000000 0.000000 0.000000 -0.547196 0.238382 -22.594033 1.138241 -0.358761 0.165485 -1.791742 2.261737 -0.465752 0.000000 0.000000 0.000000 -0.547196 0.238382 -22.594033 -0.108969 -1.020605 -0.179835 1.089006 -1.507714 0.495700 0.000000 0.000000 0.000000
80.919764 78.789299 321.109046 0.661335 -0.004867 22.801395 -0.607773 0.260774 -22.799983 -0.000000 0.000000 0.000000 10.407200 -0.406586 0.474742 0.000000 0.000000 0.000000 2.432931 2.798091 -0.208272 -1.504168 -2.562348 -0.132429 0.709713 1.382005 -0.585842 -5.584224 1.477603 2.620631 0.000000 0.000000 0.000000 0.000000 0.000000 0.000000 2.267379 0.170724 -0.159017 -2.266907 -0.176881 0.152139 -0.000000 0.000000 0.000000 3.627664 -0.748685 -1.043773 0.000000 0.000000 0.000000 0.000000 0.000000 0.000000 -0.607773 0.260774 -22.799983 1.296483 -0.437373 0.186151 -1.262739 -0.981724 2.011780 0.000000 0.000000 0.000000 -0.607773 0.260774 -22.799983 -0.227217 -1.270880 -0.239938 1.890862 -2.733431 0.305622 0.000000 0.000000 0.000000
80.882725 78.783379 321.133492 0.723991 -0.000639 23.007367 -0.666157 0.283553 -23.005715 0.806898 0.077679 0.066393 9.962820 -0.583007 0.437470 0.000000 0.000000 0.000000 1.954261 3.156225 -0.317113 -1.159558 -1.960577 -0.357118 -0.779144 -1.591927 0.079564 -4.065157 6.084875 3.223290 0.000000 0.000000 0.000000 0.000000 0.000000 0.000000 1.684775 0.163725 -0.228918 -2.490803 -0.250257 0.154105 -0.000000 0.000000 0.000000 5.088111 -2.403607 -1.181300 0.000000 0.000000 0.000000 0.000000 0.000000 0.000000 -0.666157 0.283553 -23.005715 1.393638 -0.477860 0.199709 -0.579364 -4.095296 4.498347 0.000000 0.000000 0.000000 -0.666157 0.283553 -23.005715 -0.384251 -1.539503 -0.310262 2.454392 -3.405285 0.350009 0.000000 0.000000 0.000000
